<svg width="204" height="120" viewBox="0 0 204 120" fill="none" xmlns="http://www.w3.org/2000/svg">
<path d="M73.3333 80H113.333C115.101 80 116.797 80.7024 118.047 81.9526C119.298 83.2029 120 84.8986 120 86.6667C120 88.4348 119.298 90.1305 118.047 91.3807C116.797 92.631 115.101 93.3334 113.333 93.3334H73.3333C71.5652 93.3334 69.8695 92.631 68.6193 91.3807C67.369 90.1305 66.6667 88.4348 66.6667 86.6667C66.6667 84.8986 67.369 83.2029 68.6193 81.9526C69.8695 80.7024 71.5652 80 73.3333 80ZM60 40C61.7681 40 63.4638 40.7024 64.714 41.9526C65.9643 43.2029 66.6667 44.8986 66.6667 46.6667V60C66.6667 61.7681 65.9643 63.4638 64.714 64.7141C63.4638 65.9643 61.7681 66.6667 60 66.6667C58.2319 66.6667 56.5362 65.9643 55.2859 64.7141C54.0357 63.4638 53.3333 61.7681 53.3333 60V46.6667C53.3333 44.8986 54.0357 43.2029 55.2859 41.9526C56.5362 40.7024 58.2319 40 60 40ZM26.675 46.325C26.7427 42.4954 27.9086 38.7658 30.0341 35.5795C32.1597 32.3933 35.1555 29.8843 38.6653 28.351C42.1752 26.8177 46.0516 26.3245 49.8336 26.93C53.6156 27.5355 57.1442 29.2142 60 31.7667C62.8772 29.1932 66.4378 27.5074 70.2519 26.9126C74.0661 26.3179 77.9708 26.8396 81.495 28.4149C85.0192 29.9902 88.0122 32.5518 90.1128 35.7904C92.2135 39.0291 93.3319 42.8064 93.3333 46.6667V60C93.3333 61.7681 92.6309 63.4638 91.3807 64.7141C90.1305 65.9643 88.4348 66.6667 86.6666 66.6667C84.8985 66.6667 83.2028 65.9643 81.9526 64.7141C80.7024 63.4638 80 61.7681 80 60V46.6667C80 44.8986 79.2976 43.2029 78.0474 41.9526C76.7971 40.7024 75.1014 40 73.3333 40C71.5652 40 69.8695 40.7024 68.6193 41.9526C67.369 43.2029 66.6667 44.8986 66.6667 46.6667V60C66.6667 61.7681 65.9643 63.4638 64.714 64.7141C63.4638 65.9643 61.7681 66.6667 60 66.6667C58.2319 66.6667 56.5362 65.9643 55.2859 64.7141C54.0357 63.4638 53.3333 61.7681 53.3333 60V46.6667C53.3333 45.7912 53.1609 44.9243 52.8259 44.1155C52.4908 43.3066 51.9998 42.5717 51.3807 41.9526C50.7616 41.3336 50.0267 40.8425 49.2179 40.5075C48.409 40.1725 47.5421 40 46.6667 40C45.7912 40 44.9243 40.1725 44.1154 40.5075C43.3066 40.8425 42.5717 41.3336 41.9526 41.9526C41.3336 42.5717 40.8425 43.3066 40.5075 44.1155C40.1724 44.9243 40 45.7912 40 46.6667V60C40 61.7681 39.2976 63.4638 38.0474 64.7141C36.7971 65.9643 35.1014 66.6667 33.3333 66.6667C31.5652 66.6667 29.8695 65.9643 28.6193 64.7141C27.369 63.4638 26.6667 61.7681 26.6667 60V46.6667L26.675 46.325ZM140 26.6667H166.667C168.435 26.6667 170.13 27.3691 171.381 28.6193C172.631 29.8696 173.333 31.5653 173.333 33.3334C173.333 35.1015 172.631 36.7972 171.381 38.0474C170.13 39.2976 168.435 40 166.667 40H140C138.232 40 136.536 39.2976 135.286 38.0474C134.036 36.7972 133.333 35.1015 133.333 33.3334C133.333 31.5653 134.036 29.8696 135.286 28.6193C136.536 27.3691 138.232 26.6667 140 26.6667ZM33.3333 80H46.6667C48.4348 80 50.1305 80.7024 51.3807 81.9526C52.6309 83.2029 53.3333 84.8986 53.3333 86.6667C53.3333 88.4348 52.6309 90.1305 51.3807 91.3807C50.1305 92.631 48.4348 93.3334 46.6667 93.3334H33.3333C31.5652 93.3334 29.8695 92.631 28.6193 91.3807C27.369 90.1305 26.6667 88.4348 26.6667 86.6667C26.6667 84.8986 27.369 83.2029 28.6193 81.9526C29.8695 80.7024 31.5652 80 33.3333 80ZM110 26.6667H113.333C115.101 26.6667 116.797 27.3691 118.047 28.6193C119.298 29.8696 120 31.5653 120 33.3334C120 35.1015 119.298 36.7972 118.047 38.0474C116.797 39.2976 115.101 40 113.333 40H110C108.232 40 106.536 39.2976 105.286 38.0474C104.036 36.7972 103.333 35.1015 103.333 33.3334C103.333 31.5653 104.036 29.8696 105.286 28.6193C106.536 27.3691 108.232 26.6667 110 26.6667ZM13.3333 80H-1.04904e-05V33.3334C-1.04904e-05 14.9334 14.9333 2.95652e-05 33.3333 2.95652e-05H166.667C185.067 2.95652e-05 200 14.9334 200 33.3334V86.6667C200 105.067 185.067 120 166.667 120H33.3333C14.9333 120 -1.04904e-05 105.067 -1.04904e-05 86.6667V73.3334H13.3333V86.6667C13.3333 91.971 15.4405 97.0581 19.1912 100.809C22.9419 104.56 28.029 106.667 33.3333 106.667H110H166.667C171.971 106.667 177.058 104.56 180.809 100.809C184.56 97.0581 186.667 91.971 186.667 86.6667L186.667 33.3334C186.667 28.029 184.56 22.942 180.809 19.1912C177.058 15.4405 171.971 13.3334 166.667 13.3334H33.3333C28.029 13.3334 22.9419 15.4405 19.1912 19.1912C15.4405 22.942 13.3333 28.029 13.3333 33.3334V80Z" fill="#E2B714"/>
<path d="M141 51.1442C141 44.556 141 67.8679 141 84.0033C141 86.7648 143.239 89 146 89H170" stroke="#E2B714" stroke-width="10"/>
</svg>
